# xmcd
#
# Track frame offsets:
#	150
#	19422
#	36479
#	48457
#	52202
#	65309
#	83684
#	96413
#	97403
#	112732
#	126173
#	138995
#	143136
#	155641
#	167784
#
# Disc length: 2419 seconds
#
# Revision: 3
# Processed by: cddbd v1.5.2PL0 Copyright (c) Steve Scherf et al.
# Submitted via: EZCDAudioConverter 1.3.4.1
#
DISCID=dc09710f
DTITLE=The End - Introspection
DYEAR=1969
DGENRE=
TTITLE0=Dreamworld   
TTITLE1=Under The Rainbow 
TTITLE2=Shades Of Orange  
TTITLE3=Bromley Common
TTITLE4=Cardboard Watch
TTITLE5=Introspection (Part 1)
TTITLE6=What Does It Feel Like
TTITLE7=Linen Draper
TTITLE8=Don't Take Me    
TTITLE9=Loving, Sacred Loving 
TTITLE10=She Said Yeah   
TTITLE11=Jacob's Bladder  
TTITLE12=Introspection (Part 2)
TTITLE13=Shades Of Orange [Mono Single]
TTITLE14=Loving, Sacred Loving [Mono Single]
EXTD=
EXTT0=
EXTT1=
EXTT2=
EXTT3=
EXTT4=
EXTT5=
EXTT6=
EXTT7=
EXTT8=
EXTT9=
EXTT10=
EXTT11=
EXTT12=
EXTT13=
EXTT14=
PLAYORDER=
